<?xml version="1.0" encoding="UTF-8"?>
<svg width="149px" height="149px" viewBox="0 0 149 149" version="1.1" xmlns="http://www.w3.org/2000/svg" xmlns:xlink="http://www.w3.org/1999/xlink">
    <title>ic_pause</title>
    <g id="Page-1" stroke="none" stroke-width="1" fill="none" fill-rule="evenodd">
        <g id="ic_pause">
            <circle id="Oval" stroke="#000000" stroke-width="2" cx="74.5" cy="74.5" r="73.5"></circle>
            <g id="pause" transform="translate(63.000000, 60.000000)" fill="#000000" fill-rule="nonzero">
                <path d="M8.34350425,25.8214128 C8.34350425,28.1290567 6.47562126,30 4.17175212,30 L4.17175212,30 C1.86788298,30 0,28.1290567 0,25.8214128 L0,4.17858718 C0,1.87094335 1.86788298,0 4.17175212,0 L4.17175212,0 C6.47562126,0 8.34350425,1.87094335 8.34350425,4.17858718 L8.34350425,25.8214128 Z" id="Path"></path>
                <path d="M24,25.8214128 C24,28.1290567 22.132117,30 19.8282479,30 L19.8282479,30 C17.5243787,30 15.6564958,28.1290567 15.6564958,25.8214128 L15.6564958,4.17858718 C15.6571249,1.87094335 17.5250079,0 19.8282479,0 L19.8282479,0 C22.132117,0 24,1.87094335 24,4.17858718 L24,25.8214128 Z" id="Path"></path>
            </g>
        </g>
    </g>
</svg>