<svg width="14" height="12" viewBox="0 0 14 12" xmlns="http://www.w3.org/2000/svg">
    <g fill="#000" fill-rule="nonzero">
        <path d="M6.171.027a.306.306 0 0 0-.344.064L2.55 3.333H.318A.326.326 0 0 0 0 3.667v4.666c0 .185.142.334.318.334H2.55l3.277 3.242a.31.31 0 0 0 .344.064.333.333 0 0 0 .193-.306V.333A.333.333 0 0 0 6.17.027zM7.829 4.132l-.454.475c-.104.11-.132.286-.045.411.193.276.306.615.306.982s-.113.706-.306.982c-.087.125-.06.302.045.411l.454.475a.314.314 0 0 0 .485-.04c.373-.506.595-1.14.595-1.828 0-.688-.222-1.322-.595-1.828a.314.314 0 0 0-.485-.04zM10.095 2.247a.308.308 0 0 0-.46-.007l-.45.471a.347.347 0 0 0-.008.46A4.436 4.436 0 0 1 10.182 6c0 1.08-.38 2.069-1.005 2.829a.347.347 0 0 0 .008.46l.45.471c.127.134.34.134.46-.007A5.8 5.8 0 0 0 11.455 6a5.799 5.799 0 0 0-1.36-3.753z"/>
        <path d="M11.895.359a.31.31 0 0 0-.46-.005l-.45.472a.341.341 0 0 0-.005.459A7.16 7.16 0 0 1 12.727 6a7.16 7.16 0 0 1-1.747 4.715.341.341 0 0 0 .005.46l.45.472a.31.31 0 0 0 .46-.005A8.522 8.522 0 0 0 14 6 8.522 8.522 0 0 0 11.895.36z"/>
    </g>
</svg>
